# xmcd
#
# Track frame offsets:
#	151
#	20045
#	45965
#	67034
#	92771
#	116087
#	142129
#	165612
#	193205
#	213913
#	232415
#	254819
#	273902
#	298003
#
# Disc length: 4376 seconds
#
# Revision: 0
# Processed by: cddbd v1.5.1PL0 Copyright (c) Steve Scherf et al.
# Submitted via: dBpowerAMP V4.0
#
DISCID=e311160e
DTITLE=Sunny Isle Blues Band - Live at King of France Tavern
DYEAR=2000
DGENRE=Blues
TTITLE0=The Rock
TTITLE1=Too Soon to Tell
TTITLE2=Angel From Montgomery
TTITLE3=Fever
TTITLE4=Big Boss Man
TTITLE5=Richest One
TTITLE6=Freight Train Boogie
TTITLE7=Little Wing
TTITLE8=Ain't That Lovin You
TTITLE9=Give it Up
TTITLE10=The Thrill is Gone
TTITLE11=Corina, Corina
TTITLE12=Rather Go Blind
TTITLE13=I Know You Rider
EXTD=
EXTT0=
EXTT1=
EXTT2=
EXTT3=
EXTT4=
EXTT5=
EXTT6=
EXTT7=
EXTT8=
EXTT9=
EXTT10=
EXTT11=
EXTT12=
EXTT13=
PLAYORDER=
